<svg width="147" height="167" fill="none" xmlns="http://www.w3.org/2000/svg"><path fill-rule="evenodd" clip-rule="evenodd" d="M52.477 40.687c.657-1.425 1.426-2.533 1.934-3.117a12.257 12.257 0 0 1-.53 3.687 12.26 12.26 0 0 1 3.066 2.114c-.774-.024-2.11-.211-3.602-.697-.688 1.517-1.558 2.564-2.128 3.052.039-1.277.308-2.5.685-3.604-1.067-.473-2.147-1.107-3.111-1.946.745-.087 2.105-.014 3.686.511Z" fill="url(#a)"/><path fill-rule="evenodd" clip-rule="evenodd" d="M47.285 26.405c.438-.95.95-1.687 1.288-2.075a8.16 8.16 0 0 1-.353 2.454 8.16 8.16 0 0 1 2.04 1.407c-.514-.016-1.403-.14-2.396-.464-.458 1.01-1.037 1.707-1.417 2.032.026-.85.205-1.665.456-2.4a8.221 8.221 0 0 1-2.07-1.294c.495-.059 1.4-.01 2.453.34Z" fill="url(#b)"/><path fill-rule="evenodd" clip-rule="evenodd" d="M33.235 12.207c.657-1.426 1.426-2.533 1.934-3.117a12.257 12.257 0 0 1-.53 3.687 12.26 12.26 0 0 1 3.066 2.113c-.774-.023-2.11-.21-3.602-.697-.688 1.518-1.558 2.565-2.128 3.053.039-1.277.307-2.5.685-3.605-1.067-.472-2.147-1.106-3.111-1.945.745-.087 2.105-.014 3.686.511Z" fill="url(#c)"/><path fill-rule="evenodd" clip-rule="evenodd" d="M31.009 44.172c.966-2.097 2.097-3.727 2.845-4.586a18.033 18.033 0 0 1-.78 5.424 18.033 18.033 0 0 1 4.511 3.11c-1.139-.035-3.103-.31-5.3-1.026-1.011 2.233-2.29 3.774-3.13 4.491.057-1.878.452-3.678 1.008-5.303-1.57-.695-3.16-1.627-4.577-2.861 1.096-.129 3.097-.021 5.423.751Z" fill="url(#d)"/><circle cx="36.822" cy="29.816" r=".847" transform="rotate(21.387 36.822 29.816)" fill="#2F235A"/><circle cx="57.782" cy="19.172" r=".847" transform="rotate(21.387 57.782 19.172)" fill="#FE9076"/><circle cx="17.547" cy="23.796" r=".847" transform="rotate(21.387 17.547 23.796)" fill="#FFA400"/><circle cx="35.725" cy="57.882" r=".847" transform="rotate(21.387 35.725 57.882)" fill="#23BB86"/><path d="M57.139 15.126c-.824-3.145-3.797-10.34-9.099-13.95" stroke="#FE9076" stroke-width=".737" stroke-linecap="round"/><path d="M15.048 20.381C12.998 17.857 7.32 12.533 1 11.434" stroke="#FFA400" stroke-width=".737" stroke-linecap="round"/><path d="M32.123 59.112c-1.817.662-6.388 2.773-10.147 5.916" stroke="#23BB86" stroke-width=".737" stroke-linecap="round"/><path fill-rule="evenodd" clip-rule="evenodd" d="M94.427 40.687c-.656-1.425-1.426-2.533-1.934-3.117-.01 1.377.202 2.613.531 3.687a12.26 12.26 0 0 0-3.067 2.114c.774-.024 2.11-.211 3.602-.697.688 1.517 1.558 2.564 2.128 3.052-.038-1.277-.307-2.5-.684-3.604 1.066-.473 2.147-1.107 3.11-1.946-.745-.087-2.105-.014-3.686.511Z" fill="url(#e)"/><path fill-rule="evenodd" clip-rule="evenodd" d="M99.619 26.405c-.437-.95-.95-1.687-1.288-2.075a8.16 8.16 0 0 0 .354 2.454 8.158 8.158 0 0 0-2.041 1.407c.515-.016 1.403-.14 2.397-.464.458 1.01 1.037 1.707 1.416 2.032a8.205 8.205 0 0 0-.455-2.4 8.213 8.213 0 0 0 2.07-1.294c-.496-.059-1.401-.01-2.453.34Z" fill="url(#f)"/><path fill-rule="evenodd" clip-rule="evenodd" d="M113.67 12.207c-.657-1.426-1.426-2.533-1.935-3.117-.01 1.377.202 2.613.531 3.687a12.28 12.28 0 0 0-3.067 2.113c.774-.023 2.11-.21 3.602-.697.688 1.518 1.558 2.565 2.128 3.053-.038-1.277-.307-2.5-.684-3.605 1.066-.472 2.147-1.106 3.11-1.945-.745-.087-2.104-.014-3.685.511Z" fill="url(#g)"/><path fill-rule="evenodd" clip-rule="evenodd" d="M115.896 44.172c-.966-2.097-2.098-3.727-2.846-4.586a18.043 18.043 0 0 0 .781 5.424 18.042 18.042 0 0 0-4.512 3.11c1.139-.035 3.104-.31 5.299-1.026 1.013 2.233 2.292 3.774 3.131 4.491-.057-1.878-.452-3.678-1.007-5.303 1.569-.695 3.159-1.627 4.577-2.861-1.097-.129-3.097-.021-5.423.751Z" fill="url(#h)"/><circle r=".847" transform="scale(-1 1) rotate(21.387 -133.99 -276.579)" fill="#2F235A"/><circle r=".847" transform="scale(-1 1) rotate(21.387 -95.327 -226.4)" fill="#FE9076"/><circle r=".847" transform="scale(-1 1) rotate(21.387 -127.689 -330.626)" fill="#FFA400"/><circle r=".847" transform="scale(-1 1) rotate(21.387 -208.854 -265.45)" fill="#23BB86"/><path d="M89.766 15.126c.823-3.145 3.796-10.34 9.098-13.95" stroke="#FE9076" stroke-width=".737" stroke-linecap="round"/><path d="M131.856 20.381c2.049-2.524 7.728-7.848 14.048-8.947" stroke="#FFA400" stroke-width=".737" stroke-linecap="round"/><path d="M114.782 59.112c1.816.662 6.388 2.773 10.146 5.916" stroke="#23BB86" stroke-width=".737" stroke-linecap="round"/><path fill="url(#i)" d="M28.527 104.439h89.85v62.11h-89.85z"/><mask id="j" style="mask-type:alpha" maskUnits="userSpaceOnUse" x="28" y="104" width="91" height="63"><path fill="#C4C4C4" d="M28.527 104.439h89.85v62.11h-89.85z"/></mask><g mask="url(#j)"><path d="M32.778 102.858H93.96l-13.828 24.011H18.95l13.828-24.011Z" fill="#000" fill-opacity=".07"/><path fill="url(#k)" d="M89.629 104.439h89.85v62.11h-89.85z"/></g><path d="M28.448 104.439h61.181l-11.818 19.723H16.629l11.819-19.723Z" fill="url(#l)"/><mask id="m" style="mask-type:alpha" maskUnits="userSpaceOnUse" x="89" y="104" width="30" height="63"><path fill="#C4C4C4" d="M89.629 104.439h28.748v62.11H89.629z"/></mask><g mask="url(#m)"><path d="M114.878 104.336H86.085l13.529 22.707h28.793l-13.529-22.707Z" fill="#000" fill-opacity=".07"/></g><path d="M118.422 104.439H89.629l11.819 19.723h28.793l-11.819-19.723Z" fill="url(#n)"/><circle cx="58.378" cy="88.62" r="8.491" fill="url(#o)"/><circle cx="91.579" cy="71.924" r="8.205" fill="url(#p)"/><circle cx="60.252" cy="57.103" r="6.616" fill="url(#q)"/><circle cx="85.594" cy="41.964" r="5.985" fill="url(#r)"/><circle cx="75.854" cy="64.386" r="1.65" fill="#FFA800" fill-opacity=".23"/><circle cx="101.434" cy="52.137" r="1.65" fill="#FFA800" fill-opacity=".23"/><circle cx="61.902" cy="32.428" r="1.65" fill="#FFA800" fill-opacity=".23"/><circle cx="83.944" cy="92.284" r="1.65" fill="#FFA800" fill-opacity=".23"/><circle cx="45.794" cy="66.037" r="1.65" fill="#FFA800" fill-opacity=".23"/><path d="M118.59 104.733H28.456L14.614 19.385H135.21l-16.621 85.348Z" fill="url(#s)"/><defs><linearGradient id="a" x1="54.161" y1="38.474" x2="51.162" y2="46.131" gradientUnits="userSpaceOnUse"><stop stop-color="#FFE89E"/><stop offset="1" stop-color="#FFBF1A"/></linearGradient><linearGradient id="b" x1="48.407" y1="24.931" x2="46.41" y2="30.028" gradientUnits="userSpaceOnUse"><stop stop-color="#FFE89E"/><stop offset="1" stop-color="#FFBF1A"/></linearGradient><linearGradient id="c" x1="34.919" y1="9.993" x2="31.92" y2="17.651" gradientUnits="userSpaceOnUse"><stop stop-color="#FFE89E"/><stop offset="1" stop-color="#FFBF1A"/></linearGradient><linearGradient id="d" x1="33.487" y1="40.915" x2="29.075" y2="52.182" gradientUnits="userSpaceOnUse"><stop stop-color="#FFE89E"/><stop offset="1" stop-color="#FFBF1A"/></linearGradient><linearGradient id="e" x1="92.743" y1="38.474" x2="95.742" y2="46.131" gradientUnits="userSpaceOnUse"><stop stop-color="#FFE89E"/><stop offset="1" stop-color="#FFBF1A"/></linearGradient><linearGradient id="f" x1="98.498" y1="24.931" x2="100.494" y2="30.028" gradientUnits="userSpaceOnUse"><stop stop-color="#FFE89E"/><stop offset="1" stop-color="#FFBF1A"/></linearGradient><linearGradient id="g" x1="111.985" y1="9.993" x2="114.984" y2="17.651" gradientUnits="userSpaceOnUse"><stop stop-color="#FFE89E"/><stop offset="1" stop-color="#FFBF1A"/></linearGradient><linearGradient id="h" x1="113.418" y1="40.915" x2="117.83" y2="52.182" gradientUnits="userSpaceOnUse"><stop stop-color="#FFE89E"/><stop offset="1" stop-color="#FFBF1A"/></linearGradient><linearGradient id="i" x1="58.541" y1="92.94" x2="22.731" y2="191.572" gradientUnits="userSpaceOnUse"><stop stop-color="#FFD481"/><stop offset="1" stop-color="#FA620C"/></linearGradient><linearGradient id="k" x1="43.857" y1="100.5" x2="152.537" y2="216.639" gradientUnits="userSpaceOnUse"><stop stop-color="#FFD481"/><stop offset=".833" stop-color="#FA620C"/></linearGradient><linearGradient id="l" x1="29.707" y1="97.39" x2="26.799" y2="139.413" gradientUnits="userSpaceOnUse"><stop stop-color="#FFD481"/><stop offset="1" stop-color="#FA620C"/></linearGradient><linearGradient id="n" x1="122.966" y1="97.39" x2="128.137" y2="138.971" gradientUnits="userSpaceOnUse"><stop stop-color="#FFD481"/><stop offset="1" stop-color="#FA620C"/></linearGradient><linearGradient id="o" x1="59.021" y1="77.326" x2="57.406" y2="100.245" gradientUnits="userSpaceOnUse"><stop stop-color="#FF9F81"/><stop offset="1" stop-color="#F53838"/></linearGradient><linearGradient id="p" x1="92.201" y1="61.011" x2="90.64" y2="83.158" gradientUnits="userSpaceOnUse"><stop stop-color="#FF9F81"/><stop offset="1" stop-color="#F53838"/></linearGradient><linearGradient id="q" x1="60.753" y1="48.303" x2="59.495" y2="66.162" gradientUnits="userSpaceOnUse"><stop stop-color="#FF9F81"/><stop offset="1" stop-color="#F53838"/></linearGradient><linearGradient id="r" x1="86.047" y1="34.003" x2="84.909" y2="50.159" gradientUnits="userSpaceOnUse"><stop stop-color="#FF9F81"/><stop offset="1" stop-color="#F53838"/></linearGradient><linearGradient id="s" x1="73.921" y1="19.385" x2="73.921" y2="200.709" gradientUnits="userSpaceOnUse"><stop stop-color="#fff" stop-opacity="0"/><stop offset="1" stop-color="#FE9277"/></linearGradient></defs></svg>