<?xml version="1.0" standalone="no"?>
<!DOCTYPE svg PUBLIC "-//W3C//DTD SVG 20010904//EN"
 "http://www.w3.org/TR/2001/REC-SVG-20010904/DTD/svg10.dtd">
<svg version="1.0" xmlns="http://www.w3.org/2000/svg"
 width="1332.000000pt" height="850.000000pt" viewBox="0 0 1332.000000 850.000000"
 preserveAspectRatio="xMidYMid meet">

<g transform="translate(0.000000,850.000000) scale(0.100000,-0.100000)"
fill="#000000" stroke="none">
<path d="M6751 7559 c-51 -10 -132 -35 -176 -55 -16 -7 -54 -22 -83 -34 -74
-28 -172 -96 -172 -119 0 -10 -7 -24 -15 -31 -15 -13 -21 -2 -7 16 4 5 -6 -4
-21 -21 -50 -53 -197 -376 -197 -430 0 -7 -13 -59 -30 -116 -17 -61 -30 -128
-30 -161 0 -33 -5 -62 -13 -70 -37 -37 -46 -128 -22 -218 8 -30 15 -68 15 -83
0 -15 9 -45 19 -65 10 -20 22 -64 26 -97 5 -39 10 -53 15 -41 4 13 15 -11 35
-80 16 -54 32 -103 35 -109 4 -5 10 -23 14 -40 6 -29 6 -29 -10 -10 -15 19
-15 15 -9 -55 5 -56 3 -92 -10 -140 -23 -90 -37 -113 -82 -132 -41 -19 -103
-105 -103 -145 0 -29 -31 -80 -55 -91 -15 -7 -8 -9 30 -10 28 -1 68 -4 90 -8
72 -12 110 -54 49 -54 -36 0 -92 -26 -123 -57 -47 -47 -92 -85 -191 -160 l-95
-72 -3 49 c-2 28 -7 50 -11 50 -4 0 -16 -19 -25 -42 -15 -39 -18 -41 -30 -25
-12 15 -15 15 -26 2 -13 -15 -10 -145 4 -176 5 -12 1 -18 -17 -23 -14 -3 -32
-8 -40 -12 -24 -9 -42 120 -31 226 l9 85 40 19 c39 18 39 18 56 -3 23 -29 40
-26 74 9 27 28 28 33 17 60 -39 96 -38 88 -14 117 12 16 33 48 46 73 26 50 43
154 27 164 -10 7 -192 -84 -222 -110 -26 -23 -34 -16 -11 9 l22 24 -28 0 c-32
0 -100 66 -139 135 -13 22 -32 52 -43 67 -10 16 -17 31 -13 35 3 3 2 6 -4 6
-10 0 -86 109 -160 230 -89 145 -108 174 -150 228 -23 30 -43 51 -43 45 0 -6
18 -33 40 -61 40 -50 48 -75 31 -101 -8 -12 -15 -8 -38 19 -44 52 -83 113 -83
131 0 20 24 42 34 32 19 -20 -25 51 -75 118 -31 41 -69 95 -84 120 -16 24 -47
67 -70 94 -23 28 -66 88 -95 135 -69 110 -71 113 -129 195 -28 39 -69 103 -92
144 -25 45 -44 69 -48 62 -5 -7 -12 -3 -19 14 -7 15 -10 30 -7 35 3 5 -11 21
-30 36 -30 22 -41 26 -76 20 -46 -7 -108 -36 -158 -73 -41 -32 -91 -109 -91
-142 0 -26 49 -105 116 -186 22 -27 65 -84 95 -126 30 -42 81 -107 114 -144
33 -37 86 -97 118 -132 31 -36 57 -69 57 -73 0 -4 24 -39 53 -77 30 -38 77
-103 105 -144 28 -41 79 -112 113 -159 34 -47 86 -121 115 -165 30 -44 92
-134 138 -200 134 -191 186 -279 186 -317 0 -39 -16 -65 -79 -131 -37 -39 -44
-51 -35 -64 15 -25 70 -36 140 -30 81 8 96 3 124 -44 14 -22 33 -39 43 -39 10
0 15 4 12 10 -3 6 3 10 14 10 12 0 30 9 41 20 25 25 29 25 23 0 -3 -11 -13
-20 -22 -20 -9 0 -21 -4 -27 -10 -5 -5 -36 -23 -69 -39 -52 -26 -55 -29 -25
-24 19 3 58 16 87 28 l51 23 6 -21 c8 -32 -14 -58 -85 -99 -45 -27 -75 -38
-104 -38 -23 0 -65 -7 -93 -15 l-51 -16 16 -33 c10 -21 13 -41 8 -53 -4 -10
-7 -26 -6 -35 2 -13 -5 -18 -20 -18 -12 0 -60 -13 -108 -29 -47 -16 -113 -37
-146 -46 -33 -9 -94 -37 -135 -62 -41 -25 -81 -46 -87 -46 -7 0 -13 -3 -13 -7
0 -10 -43 -10 -56 1 -8 7 -17 4 -29 -8 -17 -16 -18 -16 -30 1 -14 19 -54 14
-90 -10 -29 -20 -35 -17 -35 15 0 28 58 118 119 185 l26 29 -29 -7 c-35 -9
-168 -88 -213 -127 -18 -15 -60 -58 -94 -96 -34 -37 -67 -68 -73 -68 -15 0
-36 -39 -41 -76 -2 -16 -17 -57 -34 -91 -17 -34 -31 -68 -31 -75 0 -12 -3 -11
-16 2 -11 10 -14 23 -9 38 3 12 12 55 20 95 7 39 26 93 40 120 15 26 38 68 52
93 25 48 132 150 223 214 76 53 83 61 30 35 -80 -40 -154 -96 -213 -161 -32
-35 -74 -81 -94 -102 -58 -60 -141 -195 -174 -282 -17 -44 -37 -90 -45 -103
-23 -36 -21 -118 4 -196 23 -69 23 -69 5 -140 -21 -81 -25 -245 -6 -267 6 -8
16 -40 22 -73 9 -50 8 -63 -6 -87 -15 -26 -15 -32 0 -97 9 -39 17 -80 17 -93
0 -37 31 -151 52 -189 51 -94 85 -150 100 -167 23 -25 48 -87 48 -118 0 -15 5
-35 11 -46 5 -11 19 -64 29 -119 10 -54 28 -116 39 -137 25 -50 95 -114 163
-150 l53 -28 210 0 210 0 53 -33 c83 -51 395 -372 474 -488 43 -64 47 -76 58
-162 13 -110 6 -167 -19 -156 -9 4 -55 9 -102 12 -64 3 -94 0 -115 -11 -62
-32 -62 -33 -79 -295 -9 -133 -13 -247 -9 -253 12 -20 5 -103 -9 -114 -8 -5
-17 -22 -20 -36 -12 -48 -209 -219 -253 -219 -8 0 -29 -13 -45 -29 -45 -45
-41 -98 12 -177 44 -64 65 -77 147 -90 36 -6 47 -3 70 17 25 22 26 22 8 2
l-19 -23 301 0 302 0 1 68 c1 77 17 59 18 -20 l1 -48 1040 0 1040 0 1 23 0 22
11 -23 c11 -22 13 -22 212 -22 l201 0 78 40 c71 36 167 116 167 139 0 21 34
41 68 41 67 0 209 66 231 108 17 32 41 106 41 127 -1 22 -22 55 -36 55 -23 0
-186 304 -270 505 -20 50 -43 99 -49 110 -7 11 -18 38 -25 60 -26 82 -65 113
-169 136 -48 10 -54 9 -113 -20 -33 -17 -63 -31 -65 -31 -2 0 0 12 3 27 4 15
7 33 6 40 -9 109 -1 188 27 269 30 85 96 210 116 217 6 2 55 1 110 -3 55 -5
172 -14 260 -20 196 -15 273 -10 356 25 114 48 116 51 114 147 -2 94 11 216
27 268 6 19 26 56 44 81 18 25 32 55 31 66 -2 28 63 112 87 113 11 0 16 5 13
14 -3 8 6 24 19 37 14 13 34 39 46 57 11 18 37 41 59 52 21 11 43 30 50 43 6
12 23 32 37 44 22 19 24 24 12 38 -10 12 -10 19 -2 27 7 7 12 19 12 28 0 8 26
58 58 111 43 71 72 137 111 254 28 86 58 167 65 179 22 34 40 185 31 257 -4
35 -7 96 -7 134 2 114 -60 323 -161 539 -54 116 -166 263 -237 309 -19 14 -69
39 -110 57 -41 18 -118 53 -170 78 -118 55 -240 90 -345 98 l-80 5 65 -24 c86
-31 110 -45 110 -62 0 -21 -178 -13 -240 10 -25 9 -63 20 -85 24 -37 6 -40 9
-39 38 1 24 -4 33 -23 42 -18 8 -23 16 -18 29 24 63 9 102 -40 102 -20 0 -99
37 -210 97 -11 6 -45 23 -75 38 -30 16 -62 34 -71 42 -10 8 -35 12 -67 11 -28
-1 -53 0 -55 2 -2 3 -18 25 -37 49 -18 24 -34 51 -35 60 0 10 -10 33 -21 52
-11 19 -35 63 -53 99 -18 36 -41 74 -51 85 -32 35 -42 77 -46 193 -3 98 0 117
16 145 11 18 20 41 20 53 0 37 29 119 59 164 38 60 65 182 51 230 -7 21 -10
118 -9 235 2 167 -2 220 -19 318 -19 104 -62 234 -97 292 -60 99 -110 168
-133 182 -15 9 -45 31 -67 48 -47 38 -140 87 -148 78 -7 -7 3 -64 14 -78 4 -6
11 -38 14 -71 7 -59 6 -62 -21 -81 -16 -10 -65 -27 -109 -37 -44 -9 -97 -24
-117 -33 -20 -8 -47 -13 -60 -9 -13 3 -61 38 -108 76 -47 39 -102 84 -122 100
l-37 30 -67 -14 c-41 -9 -84 -26 -111 -45 -24 -17 -47 -31 -51 -31 -4 0 -37
-27 -72 -61 -68 -64 -91 -65 -43 -1 16 20 42 56 57 80 59 87 97 113 271 179
113 43 151 52 245 54 56 1 68 3 45 9 -39 10 -80 10 -134 -1z m-2508 -501 c35
-47 49 -77 41 -89 -4 -6 -18 3 -35 24 -38 47 -83 65 -107 44 -9 -8 -29 -19
-45 -22 -15 -4 -32 -16 -38 -27 -6 -11 -13 -17 -16 -15 -2 3 0 15 7 26 10 20
131 89 157 91 7 0 23 -15 36 -32z m2198 17 c34 -14 33 -14 -41 -14 -70 0 -73
1 -50 14 32 18 50 18 91 0z m782 -212 c-4 -201 -8 -232 -26 -214 -9 9 -11 61
-10 182 2 177 6 209 27 209 10 0 12 -39 9 -177z m-3187 95 c4 -6 3 -8 -4 -5
-7 5 -8 -6 -5 -32 5 -33 2 -41 -16 -50 -27 -15 -41 -6 -41 25 0 21 3 23 19 15
14 -8 20 -7 25 4 3 8 0 17 -6 21 -7 5 -8 2 -3 -6 6 -9 4 -11 -4 -6 -9 6 -8 13
5 27 20 22 21 22 30 7z m355 -120 c8 -19 9 -36 2 -50 -8 -19 -12 -16 -41 35
-18 31 -32 61 -32 66 0 5 -7 14 -15 21 -8 7 -15 22 -15 34 1 17 8 13 45 -28
24 -27 49 -62 56 -78z m-357 13 c7 -10 -22 -37 -30 -28 -9 8 3 37 15 37 5 0
12 -4 15 -9z m431 -129 c30 -43 36 -57 28 -75 -9 -19 -13 -17 -52 37 -34 45
-41 63 -36 83 7 29 6 29 60 -45z m133 -180 c26 -44 30 -57 21 -73 -6 -12 -12
-19 -14 -17 -1 1 -18 23 -37 48 -59 78 -71 105 -64 136 l7 28 27 -34 c15 -19
42 -58 60 -88z m2662 69 c0 -5 -12 -17 -27 -27 l-28 -18 33 -13 c34 -14 39
-35 10 -41 -21 -4 -97 29 -80 35 6 3 12 13 12 23 0 10 10 26 22 34 24 17 58
21 58 7z m-864 -92 c67 -51 78 -74 32 -65 -43 8 -138 48 -138 57 0 4 7 9 15
13 8 3 15 12 15 21 0 24 20 18 76 -26z m-1676 -133 c14 -22 16 -34 8 -57 -5
-16 -14 -29 -18 -29 -10 0 -90 118 -90 132 0 5 5 19 11 31 12 21 12 21 42 -13
16 -19 37 -48 47 -64z m2554 14 c35 -13 33 -29 -5 -37 -19 -4 -34 -14 -37 -25
-2 -10 -24 -30 -48 -44 -37 -22 -52 -25 -87 -19 -23 3 -59 6 -79 7 -21 0 -38
2 -38 4 0 14 35 70 49 79 55 34 195 54 245 35z m-751 -50 c53 -34 62 -60 20
-60 -39 0 -170 36 -191 51 -9 7 -19 14 -21 16 -1 1 0 6 4 12 3 6 37 11 74 11
57 0 74 -4 114 -30z m-1649 -188 c2 -4 0 -18 -5 -31 -9 -23 -10 -23 -30 -5
-12 11 -33 37 -47 59 -13 22 -35 52 -48 66 -21 22 -23 29 -13 57 l11 32 64
-86 c35 -47 65 -88 68 -92z m2451 90 c-3 -3 -11 0 -18 7 -9 10 -8 11 6 5 10
-3 15 -9 12 -12z m-966 -33 c54 -19 36 -31 -36 -23 -66 6 -93 10 -103 14 -8 4
53 18 81 19 14 0 40 -4 58 -10z m-1299 -312 c0 -5 14 -28 30 -52 34 -49 35
-54 17 -79 -12 -16 -18 -9 -65 68 -46 75 -51 89 -41 108 l12 22 23 -30 c13
-16 24 -33 24 -37z m96 -159 c9 -18 36 -60 60 -93 34 -48 40 -64 32 -78 -13
-24 -24 -14 -88 83 -37 57 -50 84 -45 99 9 30 22 26 41 -11z m150 -230 c21
-35 56 -80 78 -100 22 -20 37 -40 33 -45 -5 -4 -12 -1 -17 6 -8 14 -81 11
-154 -5 -46 -11 -23 11 33 32 33 12 46 21 40 28 -5 6 -25 33 -44 60 -28 41
-32 52 -22 67 7 11 13 19 14 19 1 0 19 -28 39 -62z m2286 -125 c24 -38 51 -84
61 -104 11 -20 41 -58 68 -85 47 -46 49 -47 64 -29 14 19 16 19 28 3 7 -9 39
-26 69 -38 31 -11 93 -44 139 -72 46 -28 94 -56 106 -62 28 -14 29 -28 1 -84
-18 -39 -22 -42 -29 -25 -8 23 -263 157 -283 150 -8 -3 -17 -23 -21 -43 -10
-56 -72 -215 -90 -233 -13 -14 -15 -13 -15 6 0 12 18 79 40 149 45 142 59 214
41 214 -6 0 -11 -9 -11 -19 0 -11 -4 -23 -10 -26 -6 -3 -10 4 -10 17 0 21 -42
58 -67 59 -21 1 -43 35 -44 68 0 27 -2 31 -8 17 -6 -17 -13 -10 -41 40 -72
130 -74 134 -53 150 10 7 19 14 20 14 1 0 22 -30 45 -67z m-1504 39 c9 -6 1
-18 -28 -41 -24 -19 -52 -56 -68 -89 -26 -54 -52 -79 -52 -50 0 8 7 39 16 68
25 84 89 138 132 112z m-409 -45 c-26 -21 -132 -65 -143 -61 -9 3 -16 1 -16
-5 0 -6 -5 -11 -11 -11 -5 0 -27 -13 -47 -29 -55 -42 -135 -85 -130 -70 5 16
91 75 172 119 39 21 57 26 53 16 -5 -12 1 -11 26 5 45 27 91 48 96 43 2 -2 2
-5 0 -7z m-385 -209 c-16 -12 -57 -49 -92 -83 -66 -62 -116 -98 -74 -53 12 13
22 30 22 36 0 7 3 12 8 12 4 0 21 13 39 30 38 36 102 80 116 80 5 0 -3 -10
-19 -22z m2922 -176 c28 -19 31 -44 12 -95 -19 -49 -81 -151 -99 -163 -8 -5
-13 12 -12 44 1 6 -5 12 -13 12 -8 0 -14 2 -14 5 0 9 105 205 110 205 3 0 10
-4 16 -8z m-583 -272 c-3 -11 -8 -20 -12 -20 -4 0 -7 9 -7 20 0 11 6 20 12 20
7 0 10 -8 7 -20z m439 -41 c10 -6 -29 -107 -98 -254 -20 -44 -39 -74 -41 -67
-3 6 -8 10 -12 8 -4 -3 -8 6 -9 18 -1 15 9 30 28 45 17 12 30 30 30 40 0 10 6
24 14 30 15 13 39 90 34 112 -4 20 35 105 41 88 2 -8 8 -17 13 -20z m-2502 -9
c0 -5 -2 -10 -4 -10 -3 0 -8 5 -11 10 -3 6 -1 10 4 10 6 0 11 -4 11 -10z m978
-16 c-9 -9 -21 -13 -27 -9 -16 10 -3 25 22 25 20 0 20 -1 5 -16z m2246 0 c9
-3 16 -13 16 -21 0 -8 4 -12 9 -9 13 8 60 -50 67 -82 3 -15 7 -35 9 -45 2 -9
-1 -15 -6 -11 -5 3 -9 1 -9 -5 0 -5 -15 -13 -32 -16 -18 -4 -38 -11 -44 -16
-23 -19 -63 13 -95 76 -35 67 -34 90 6 105 14 5 25 14 25 20 0 11 30 13 54 4z
m-321 -112 c-2 -13 10 -58 26 -100 16 -42 31 -90 32 -107 2 -16 7 -36 13 -43
14 -19 -3 -31 -54 -38 l-45 -6 -72 136 c-40 75 -73 139 -73 142 0 15 89 44
130 42 40 -3 45 -5 43 -26z m-3290 -138 c-2 -6 5 -18 15 -26 26 -17 33 -71 11
-76 -11 -2 -18 10 -26 40 -6 24 -13 50 -17 59 -4 10 -2 16 8 16 8 0 12 -6 9
-13z m2734 -88 c4 -5 3 -6 -4 -3 -6 4 -13 2 -15 -3 -2 -7 -10 -6 -22 3 -18 13
-18 14 7 13 14 -1 30 -6 34 -10z m-292 -92 c54 -31 58 -59 17 -105 l-28 -31
-52 42 c-63 49 -68 60 -52 101 12 27 17 30 42 25 16 -3 49 -17 73 -32z m-36
-354 c7 -33 11 -66 7 -75 -12 -32 -36 -14 -66 51 -16 37 -30 68 -30 70 0 4 32
12 55 13 18 1 23 -9 34 -59z m-99 -9 c0 -33 -39 -65 -80 -67 -41 -3 -96 -13
-121 -22 -13 -5 -64 -9 -114 -9 l-90 0 45 19 c25 11 86 28 136 38 50 10 118
32 150 48 33 17 62 28 67 25 4 -2 7 -17 7 -32z m405 16 c39 -8 79 -19 91 -25
21 -11 51 -58 42 -67 -3 -3 -39 4 -79 15 -53 15 -100 20 -164 19 -101 -1 -145
7 -145 27 0 16 81 42 140 43 25 1 77 -5 115 -12z m214 -28 c56 -12 69 -23 51
-44 -23 -27 -88 -10 -115 32 -18 28 -13 29 64 12z m-445 -117 c15 -26 28 -49
27 -52 -2 -11 -26 -4 -23 8 1 6 -2 12 -8 12 -5 0 -10 8 -10 18 0 14 -2 15 -10
2 -8 -12 -10 -11 -10 7 0 12 -3 28 -6 37 -13 34 12 13 40 -32z m804 9 c65 -24
55 -41 -50 -85 -118 -49 -138 -62 -138 -87 0 -15 -5 -19 -16 -15 -9 3 -19 6
-23 6 -13 0 -22 107 -11 134 16 43 66 67 135 65 33 -1 79 -9 103 -18z m-1441
-28 c2 -6 -5 -14 -16 -18 -12 -3 -21 -12 -21 -20 0 -7 -17 -19 -37 -26 -42
-13 -135 -71 -413 -259 -130 -87 -205 -131 -251 -146 -36 -12 -140 -60 -231
-108 -164 -86 -198 -98 -198 -73 0 23 31 44 143 96 59 28 131 65 160 84 28 18
90 58 136 88 46 30 88 53 93 51 5 -1 7 1 4 6 -3 5 27 27 67 50 43 25 64 42 52
42 -36 0 -146 -38 -186 -64 -42 -28 -59 -32 -75 -16 -7 7 -29 7 -68 -1 -36 -6
-62 -7 -69 -1 -12 9 -88 3 -222 -18 -33 -5 -81 -12 -107 -15 -29 -4 -47 -11
-45 -18 1 -9 -26 -12 -98 -12 -224 -1 -397 -17 -530 -47 -187 -43 -184 -43
-192 -23 -4 12 0 23 11 31 10 7 15 17 11 23 -4 7 10 11 41 11 26 0 80 9 118
19 45 13 135 24 246 30 415 25 952 94 1055 134 33 13 74 27 90 31 17 4 57 20
90 36 136 66 243 114 295 131 59 20 141 21 147 2z m1479 -649 c105 -51 134
-69 120 -74 -16 -5 -17 -8 -5 -15 8 -5 27 -9 44 -10 25 0 31 -5 33 -26 4 -36
-29 -65 -57 -49 -12 6 -25 8 -30 6 -5 -3 -23 7 -40 23 -30 28 -147 80 -228
101 -55 14 -119 14 -162 1 -68 -21 -86 34 -21 65 22 10 40 25 40 32 0 8 23 12
83 12 83 0 86 -1 223 -66z m-4630 29 c-10 -10 -19 5 -10 18 6 11 8 11 12 0 2
-7 1 -15 -2 -18z m4729 -243 c3 -5 2 -10 -4 -10 -5 0 -13 5 -16 10 -3 6 -2 10
4 10 5 0 13 -4 16 -10z m-2775 -710 c0 -5 -2 -10 -4 -10 -3 0 -8 5 -11 10 -3
6 -1 10 4 10 6 0 11 -4 11 -10z m1055 -52 c36 -54 234 -278 245 -278 5 0 63
-53 128 -117 164 -161 242 -233 286 -263 73 -49 149 -110 138 -110 -6 0 -26
13 -44 29 -18 15 -55 40 -83 54 -27 14 -79 55 -115 92 -36 36 -76 72 -90 80
-34 19 -311 293 -385 380 -33 38 -66 76 -72 83 -7 7 -13 19 -13 26 0 8 -7 19
-15 26 -13 11 -21 40 -11 40 2 0 16 -19 31 -42z m-1135 -142 c0 -8 -11 -28
-24 -43 -18 -21 -28 -25 -36 -17 -8 8 -4 19 15 43 29 33 45 40 45 17z m-88
-71 c42 -28 64 -60 48 -70 -10 -6 -24 1 -102 48 -27 16 -48 33 -48 38 0 19 67
8 102 -16z m1988 -221 c0 -9 -32 -33 -44 -34 -5 0 -1 9 9 20 18 20 35 26 35
14z m-1900 -175 c12 -23 18 -44 15 -47 -10 -10 -55 46 -55 69 0 31 18 22 40
-22z m1010 -8 c5 -11 10 -37 10 -58 0 -21 11 -62 25 -91 14 -30 25 -60 25 -68
0 -25 -36 -15 -50 14 l-13 27 -13 -30 c-7 -16 -15 -51 -19 -77 -10 -71 -33
-57 -25 15 1 10 -4 25 -11 33 -19 23 -7 209 16 234 23 25 41 25 55 1z m1356
-206 c6 -8 18 -15 27 -15 27 0 30 -19 9 -63 -15 -32 -33 -50 -70 -70 -27 -15
-57 -27 -65 -27 -9 0 -25 -9 -36 -21 -12 -13 -21 -17 -26 -10 -3 6 -15 11 -25
11 -38 0 -29 19 24 51 62 37 88 75 90 131 1 38 2 39 31 34 16 -4 35 -13 41
-21z m-274 -9 c23 -17 13 -26 -29 -26 -22 0 -33 5 -33 14 0 25 36 32 62 12z
m-2562 -65 c0 -5 -32 -42 -70 -82 -39 -41 -68 -79 -66 -86 4 -10 -14 -23 -32
-23 -4 0 -6 39 -4 87 2 67 7 91 19 101 19 14 153 17 153 3z m279 -5 c10 -12
21 -85 34 -219 3 -36 1 -38 -22 -35 -26 3 -26 5 -37 128 -6 69 -10 128 -7 133
6 11 19 8 32 -7z m2314 -151 c34 -14 57 -40 57 -64 0 -32 -117 -103 -190 -115
-30 -5 -38 -2 -55 21 -14 21 -15 25 -2 15 13 -12 21 -11 47 4 16 10 30 22 30
27 0 4 4 6 9 3 12 -8 71 60 71 82 0 10 -5 23 -12 30 -17 17 1 15 45 -3z
m-2563 -10 c0 -8 -7 -15 -15 -15 -13 0 -14 3 -3 15 16 18 18 18 18 0z m3086
-255 c47 -96 92 -188 101 -203 8 -16 13 -30 11 -32 -9 -9 -39 27 -57 68 -11
26 -38 74 -60 106 -22 33 -61 98 -86 146 -37 70 -45 93 -40 117 l7 30 19 -28
c10 -16 57 -108 105 -204z m-3096 210 c0 -5 -4 -10 -10 -10 -5 0 -10 5 -10 10
0 6 5 10 10 10 6 0 10 -4 10 -10z m185 -36 c33 -14 94 -43 135 -64 93 -48 100
-68 37 -99 -24 -12 -52 -30 -61 -40 -17 -19 -19 -19 -59 9 -23 15 -68 38 -101
51 -32 13 -58 29 -59 34 0 11 -61 55 -76 55 -18 0 -12 36 8 54 23 21 70 36 96
30 11 -3 47 -16 80 -30z m1895 -108 c0 -22 -9 -25 -162 -51 -151 -26 -214 -30
-237 -16 -14 9 73 27 268 56 58 9 107 18 110 20 9 10 21 5 21 -9z m748 -116
c10 -18 3 -14 -22 13 -20 21 -34 43 -30 48 6 10 28 -16 52 -61z m-2004 26 c-8
-20 -38 -26 -134 -25 -98 0 -176 11 -192 27 -7 7 40 10 160 11 142 0 170 -2
166 -13z m1688 -107 c33 -84 34 -89 8 -82 -11 3 -20 6 -20 7 0 8 -22 125 -27
141 -12 41 11 3 39 -66z m-39 -139 c21 -70 31 -90 44 -88 11 2 22 -15 40 -67
13 -38 25 -83 28 -100 2 -16 8 -50 14 -75 14 -62 13 -82 -3 -40 -8 19 -39 93
-71 165 -73 167 -111 295 -87 295 5 0 21 -41 35 -90z m-1395 68 c21 -21 15
-75 -10 -92 -27 -19 -79 -21 -96 -4 -19 19 -14 66 8 88 22 22 79 27 98 8z
m367 6 c24 -10 36 -49 25 -79 -24 -64 -119 -46 -120 23 0 43 50 73 95 56z
m-1026 -206 l1 -98 -27 2 c-16 1 -34 6 -42 12 -11 9 -12 6 -6 -14 4 -14 15
-30 24 -37 9 -7 11 -13 5 -13 -23 0 -48 42 -50 87 -2 25 -9 50 -16 54 -8 6 -9
9 -2 9 18 0 84 72 84 91 0 10 3 26 7 36 12 31 21 -21 22 -129z m-714 51 c10
-56 0 -59 -18 -5 -15 42 -13 61 4 51 4 -3 10 -23 14 -46z m270 31 c-3 -5 -14
-10 -23 -10 -15 0 -15 2 -2 10 20 13 33 13 25 0z m-305 -126 c0 -5 -11 7 -25
26 -14 19 -25 39 -25 44 0 6 11 -6 25 -26 14 -20 25 -40 25 -44z m3588 -4 c-7
-11 -14 -16 -16 -10 -2 5 -8 10 -13 10 -6 0 -8 -3 -6 -7 3 -5 -5 -17 -16 -28
-11 -11 -17 -14 -13 -7 4 6 2 12 -4 12 -6 0 -8 5 -5 10 4 6 10 8 15 5 4 -3 11
2 14 11 4 9 13 14 21 10 8 -3 15 -1 15 4 0 6 5 10 10 10 6 0 5 -8 -2 -20z
m-3708 -10 c-14 -11 -19 -20 -12 -20 7 0 10 -4 7 -10 -3 -6 1 -7 10 -3 14 5
14 8 3 15 -9 7 -8 8 6 4 11 -4 23 -1 27 6 4 7 11 10 14 6 10 -9 -94 -78 -124
-82 -15 -2 -34 -7 -41 -11 -19 -12 4 26 32 51 23 22 89 64 98 64 3 0 -6 -9
-20 -20z m170 -25 c0 -8 -4 -15 -10 -15 -5 0 -7 7 -4 15 4 8 8 15 10 15 2 0 4
-7 4 -15z m3445 -23 c-3 -3 -11 0 -18 7 -9 10 -8 11 6 5 10 -3 15 -9 12 -12z
m-3773 -51 c-3 -25 3 -53 17 -81 18 -38 18 -41 2 -26 -20 18 -42 81 -35 102
12 39 14 44 16 44 2 0 2 -17 0 -39z m3693 29 c-3 -5 -12 -10 -18 -10 -7 0 -6
4 3 10 19 12 23 12 15 0z"/>
<path d="M4180 7061 c0 -5 7 -12 16 -15 14 -5 15 -4 4 9 -14 17 -20 19 -20 6z"/>
<path d="M6995 7530 c39 -11 81 -19 95 -17 l25 3 -27 12 c-15 6 -58 14 -95 17
l-68 5 70 -20z"/>
<path d="M5810 5175 c0 -9 -7 -18 -15 -21 -8 -4 -15 -13 -15 -21 0 -12 3 -13
14 -4 8 6 19 10 26 9 18 -4 20 25 4 40 -12 10 -14 10 -14 -3z"/>
<path d="M5725 5084 c-19 -15 -22 -21 -9 -15 18 9 52 41 43 41 -2 0 -17 -12
-34 -26z"/>
<path d="M5531 4973 c-14 -48 -14 -66 -1 -58 6 3 10 22 10 41 0 19 5 34 10 34
6 0 10 5 10 10 0 25 -20 6 -29 -27z"/>
<path d="M4770 4768 c-59 -8 -247 -66 -217 -67 10 -1 16 -5 13 -9 -3 -4 25 0
62 9 84 22 174 23 275 4 122 -23 145 -20 197 24 l44 39 -114 6 c-124 6 -175 5
-260 -6z"/>
</g>
</svg>
